PathFileType	4	(X/Y/Z)	C:\Users\Basilio\Documents\Thesis Gigler\squatting_fais\c3dfiles\040\SLS_pre_back2\markers_experimental.trc
DataRate	CameraRate	NumFrames	NumMarkers	Units	OrigDataRate	OrigDataStartFrame	OrigNumFrames
200.000000	200.000000	4	63	mm	200.000000	0	1459
Frame#	Time	FHD			LBHD			RBHD			C7			T10			CLAV			LSHO			LUUPA			LMUPA			LDUPA			LLEP			LMEP			LRAD			LUL			LRFIN			RSHO			RUPA1			RMUPA			RDUPA			RLEP			RMEP			RRAD			RUL			RUFIN			LASI			RASI			USACR			LSACR			RSACR			LTHI1			LTHI2			LTHI3			LTHI4			LLFC			LMFC			LTIB1			LTIB2			LTIB3			LTIB4			LLMAL			LMMAL			LHEE			LMT1			LMT2			LMT5			RTHI			RTHI2			RTHI3			RTHI4			RLFC			RMFC			RTIB1			RTIB2			RTIB3			RTIB4			RLMAL			RMMAL			RHEE			RMT1			RMT2			RMT5			*61			*62			
		X1	Y1	Z1	X2	Y2	Z2	X3	Y3	Z3	X4	Y4	Z4	X5	Y5	Z5	X6	Y6	Z6	X7	Y7	Z7	X8	Y8	Z8	X9	Y9	Z9	X10	Y10	Z10	X11	Y11	Z11	X12	Y12	Z12	X13	Y13	Z13	X14	Y14	Z14	X15	Y15	Z15	X16	Y16	Z16	X17	Y17	Z17	X18	Y18	Z18	X19	Y19	Z19	X20	Y20	Z20	X21	Y21	Z21	X22	Y22	Z22	X23	Y23	Z23	X24	Y24	Z24	X25	Y25	Z25	X26	Y26	Z26	X27	Y27	Z27	X28	Y28	Z28	X29	Y29	Z29	X30	Y30	Z30	X31	Y31	Z31	X32	Y32	Z32	X33	Y33	Z33	X34	Y34	Z34	X35	Y35	Z35	X36	Y36	Z36	X37	Y37	Z37	X38	Y38	Z38	X39	Y39	Z39	X40	Y40	Z40	X41	Y41	Z41	X42	Y42	Z42	X43	Y43	Z43	X44	Y44	Z44	X45	Y45	Z45	X46	Y46	Z46	X47	Y47	Z47	X48	Y48	Z48	X49	Y49	Z49	X50	Y50	Z50	X51	Y51	Z51	X52	Y52	Z52	X53	Y53	Z53	X54	Y54	Z54	X55	Y55	Z55	X56	Y56	Z56	X57	Y57	Z57	X58	Y58	Z58	X59	Y59	Z59	X60	Y60	Z60	X61	Y61	Z61	X62	Y62	Z62	X63	Y63	Z63	

1	0	-154.6052703857422	1791.978271484375	-1149.623413085938	-275.8652954101563	1736.120849609375	-1193.435546875	-328.8712768554688	1693.570190429688	-1062.802612304688	-341.8588867187501	1572.605712890625	-1113.040893554688	-366.9987487792969	1254.971923828125	-1099.633911132813	-210.1608886718751	1506.348754882813	-1108.067504882813	-262.3823242187501	1526.82958984375	-1290.270751953125	-303.0219726562501	1316.044189453125	-1372.391845703125	-264.1543884277344	1289.126220703125	-1361.656616210938	-306.0224914550782	1247.130981445313	-1378.557495117188	-321.2727966308594	1185.852294921875	-1374.332885742188	-335.7706298828126	1176.646850585938	-1309.022338867188	-188.783920288086	931.937927246094	-1362.6103515625	-234.0168914794922	933.995300292969	-1425.881469726563	-161.9460601806641	846.9915161132815	-1391.284790039063	-264.5005798339844	1517.026489257813	-930.2617797851565	-314.9847106933594	1306.283203125	-845.3056640625002	-275.6994323730469	1280.751953125	-855.6458740234377	-315.3876342773438	1237.369384765625	-842.7879028320315	-309.5648803710938	1174.399047851563	-840.8444824218752	-335.2490234375001	1163.4501953125	-913.7486572265627	-151.1438140869141	931.0183105468752	-874.6311645507815	-210.1214752197266	915.3696289062502	-829.6008911132815	-120.1824951171875	847.5345458984377	-844.6475219726565	-188.371566772461	1082.981323242188	-1212.720825195313	-181.5215148925782	1080.529541015625	-981.988708496094	-370.0654602050782	1126.0478515625	-1091.990600585938	-377.6851501464844	1097.001831054688	-1120.247680664063	-376.2614440917969	1096.893432617188	-1063.992065429688	-317.3939514160157	828.779724121094	-1274.882568359375	-281.0242919921876	752.2560424804689	-1277.790283203125	-233.6499633789063	754.1134033203126	-1277.8125	-304.9520263671876	699.3917846679689	-1264.486694335938	-293.5232238769532	565.1528930664064	-1249.757080078125	-296.9900512695313	548.7457885742189	-1118.951782226563	-268.1003112792969	341.6852722167969	-1206.219482421875	-339.1776123046876	304.5458679199219	-1245.994262695313	-296.5012512207032	295.9124145507813	-1231.534912109375	-291.4718322753907	218.849594116211	-1194.656616210938	-357.9627685546876	131.9013824462891	-1204.020385742188	-325.9119262695313	146.2599182128907	-1124.0224609375	-419.5293273925782	99.39894104003909	-1158.911376953125	-206.2704772949219	58.78184127807619	-1132.112426757813	-206.3493652343751	52.43423080444337	-1178.129638671875	-255.458236694336	37.07506942749024	-1227.984619140625	-264.2166137695313	812.818298339844	-922.5682373046877	-235.7401428222657	752.8270263671876	-926.0874633789065	-203.3464813232422	751.3239746093751	-931.0703125000002	-273.2972412109376	679.5539550781251	-942.103698730469	-282.7266540527344	543.4481811523439	-956.9194335937502	-276.3465270996094	540.8693847656251	-1090.659790039063	-247.6600341796876	355.1740722656251	-988.370056152344	-323.9896545410157	283.3569030761719	-969.1155395507815	-278.9100952148438	275.6142578125001	-978.198181152344	-265.7294311523438	229.6548004150391	-1014.284118652344	-327.9244384765626	123.0621490478516	-1001.707763671875	-305.1036071777344	135.7562103271485	-1086.114013671875	-389.2113342285157	88.15762329101564	-1060.066040039063	-172.0654754638672	58.33169555664064	-1065.74169921875	-177.0506896972657	55.3439178466797	-1026.480224609375	-221.2567138671876	35.92601776123048	-974.403015136719	nan	nan	nan	nan	nan	nan	
2	0.005	-154.6302337646485	1792.027099609375	-1149.587890625	-275.9053955078126	1736.115112304688	-1193.41357421875	-328.9608764648438	1693.56787109375	-1062.75634765625	-341.8712158203126	1572.606567382813	-1113.084228515625	-367.0789489746094	1254.961059570313	-1099.628784179688	-211.5804595947266	1506.414428710938	-1107.639526367188	-262.4350891113282	1526.594116210938	-1290.380981445313	-304.3082275390626	1315.601196289063	-1371.189453125	-264.3887634277344	1288.69140625	-1361.36083984375	-306.4210510253907	1246.632446289063	-1377.561767578125	-320.5169067382813	1184.589721679688	-1372.801025390625	-334.8529663085938	1176.168579101563	-1307.16259765625	-187.0766143798828	932.1196289062502	-1363.038330078125	-234.1554107666016	933.5247192382815	-1425.088012695313	-161.4154205322266	847.3575439453127	-1391.382934570313	-264.3764038085938	1516.968505859375	-930.3482055664065	-314.7972717285157	1306.2685546875	-845.329528808594	-275.4752807617188	1280.787963867188	-855.6770629882815	-315.1308898925782	1237.329345703125	-842.7733154296877	-309.1247558593751	1174.381225585938	-840.9090576171877	-334.9713745117188	1163.38671875	-913.7465820312502	-150.3977203369141	931.2200927734377	-875.2283325195315	-209.3455047607422	915.3492431640627	-829.870788574219	-119.3732833862305	847.7125244140627	-845.1607666015627	-188.592758178711	1083.005493164063	-1212.826293945313	-181.5284118652344	1080.595458984375	-982.2044067382815	-370.1582641601563	1125.994384765625	-1092.023193359375	-377.7624511718751	1096.936645507813	-1120.27880859375	-376.3389282226563	1096.828125	-1064.024047851563	-317.7400207519532	828.8464965820315	-1275.083740234375	-281.0998229980469	752.2518920898439	-1277.843994140625	-233.7923278808594	754.1389160156251	-1277.956176757813	-304.9899902343751	699.3413085937501	-1264.494384765625	-293.4515686035157	565.0881347656251	-1249.864868164063	-296.9559936523438	548.6910400390626	-1118.96826171875	-268.0491638183594	341.6252136230469	-1206.236572265625	-339.1444396972657	304.5201110839844	-1246.03271484375	-296.4405517578126	295.9178466796876	-1231.583862304688	-291.4694824218751	218.7982635498047	-1194.6279296875	-357.9584655761719	131.9205932617188	-1204.04736328125	-325.9537353515626	146.281723022461	-1124.019409179688	-419.5426330566407	99.36640167236331	-1158.900634765625	-206.2483062744141	58.76384735107423	-1132.135498046875	-206.4165496826172	52.40578460693361	-1178.118408203125	-255.4830017089844	37.06754302978516	-1228.007202148438	-264.1874694824219	812.8555297851565	-922.6457519531252	-235.5410614013672	752.7338256835939	-926.258728027344	-203.2050018310547	750.8431396484376	-932.6226196289065	-273.0364074707032	679.5007324218751	-942.2143554687502	-282.6107482910157	543.4167480468751	-956.9848632812502	-276.2319335937501	540.8434448242189	-1090.723266601563	-247.429672241211	355.0816040039063	-988.574890136719	-323.8016662597657	283.3203125000001	-969.1676025390627	-278.7051086425782	275.6020812988282	-978.2495727539065	-265.5365600585938	229.6329803466797	-1014.367736816406	-327.9205932617188	123.0701293945313	-1001.722473144531	-305.1877136230469	135.7345886230469	-1086.152099609375	-389.2116699218751	88.15911865234376	-1060.0458984375	-172.0774078369141	58.31467056274415	-1065.72802734375	-177.0576477050782	55.32740020751955	-1026.510131835938	-221.1998748779297	35.92542266845704	-974.415710449219	nan	nan	nan	nan	nan	nan	
3	0.01	-154.8135070800782	1791.998291015625	-1149.669189453125	-276.0036621093751	1736.115112304688	-1193.408935546875	-328.9447631835938	1693.552368164063	-1062.691162109375	-341.8716430664063	1572.614501953125	-1113.115844726563	-367.2562255859376	1254.973388671875	-1099.714477539063	-210.1685180664063	1506.209106445313	-1108.295288085938	-262.5115051269532	1526.385498046875	-1290.484985351563	-304.6769104003907	1315.07275390625	-1370.515380859375	-264.5879821777344	1288.301147460938	-1360.93310546875	-306.9102783203126	1246.100708007813	-1376.4677734375	-321.9740600585938	1184.549194335938	-1371.239135742188	-334.1039733886719	1175.737915039063	-1305.362182617188	-185.6069793701172	933.0831298828127	-1363.4853515625	-234.3078308105469	932.9901123046877	-1424.301879882813	-160.8705749511719	847.076843261719	-1391.145751953125	-264.3342590332032	1516.927001953125	-930.4306640625002	-314.4595947265626	1306.246337890625	-845.3648071289065	-275.3303527832032	1280.770263671875	-855.7075805664065	-314.8505859375001	1237.2197265625	-842.7478637695315	-308.6864929199219	1173.795654296875	-840.5581054687502	-334.6972961425782	1163.290771484375	-913.7628173828127	-149.6417388916016	931.4011230468752	-875.687194824219	-208.850082397461	915.4033203125002	-830.201354980469	-118.1806259155274	847.4042968750002	-845.9248657226565	-188.8315734863282	1083.0400390625	-1212.909790039063	-181.5770263671875	1080.64501953125	-982.3645019531252	-370.3495483398438	1125.9658203125	-1092.047729492188	-377.9320678710938	1096.904174804688	-1120.293579101563	-376.4161682128907	1096.762939453125	-1064.055908203125	-317.8459167480469	828.8286132812502	-1275.141357421875	-281.2275085449219	752.2631835937501	-1277.911987304688	-233.854965209961	754.1453857421876	-1278.036010742188	-305.0592651367188	699.3390502929689	-1264.509643554688	-293.3248291015626	565.1070556640626	-1249.89892578125	-296.8803405761719	548.7184448242189	-1119.03759765625	-268.0222778320313	341.5750427246094	-1206.276611328125	-339.0507507324219	304.4899597167969	-1246.090942382813	-296.4284057617188	295.8489685058594	-1231.573852539063	-291.3368225097657	218.7971191406251	-1194.676025390625	-357.9178161621094	131.9072265625	-1204.09716796875	-325.9122009277344	146.279296875	-1124.039306640625	-419.5345764160157	99.39762115478518	-1158.914306640625	-206.264633178711	58.78330993652345	-1132.142822265625	-206.390853881836	52.42449951171876	-1178.067626953125	-255.514389038086	37.09406280517579	-1228.017211914063	-264.1304626464844	812.8405761718752	-922.7385253906252	-235.6709136962891	752.4915771484376	-926.4595947265627	-203.1600952148438	750.8090209960939	-932.647399902344	-272.9139099121094	679.4781494140626	-942.2622070312502	-282.3840026855469	543.4176635742189	-957.0401611328127	-276.0599975585938	540.8207397460939	-1090.776000976563	-247.2337951660157	355.0536804199219	-988.710876464844	-324.1003417968751	282.8045349121094	-969.6212158203127	-278.5986938476563	275.5531616210938	-978.3162231445315	-265.5154113769532	229.5991973876954	-1014.440979003906	-327.8022460937501	123.1180267333985	-1001.740112304688	-305.1396789550782	135.7573394775391	-1086.192626953125	-389.2067871093751	88.18225860595705	-1060.081909179688	-172.0512237548828	58.3233985900879	-1065.744262695313	-177.0724334716797	55.31430053710939	-1026.5078125	-221.1919555664063	35.93059158325196	-974.3870239257815	nan	nan	nan	nan	nan	nan	
4	0.015	-154.9511871337891	1791.991333007813	-1149.671020507813	-276.0817260742188	1736.126831054688	-1193.399291992188	-328.9682617187501	1693.538452148438	-1062.672485351563	-341.8885803222657	1572.6181640625	-1113.1787109375	-367.4043579101563	1255.00146484375	-1099.734619140625	-211.6852111816407	1506.26025390625	-1107.820556640625	-262.5928649902344	1526.225830078125	-1290.588623046875	-305.1420593261719	1314.556640625	-1369.811645507813	-264.9288635253907	1287.921997070313	-1360.49755859375	-307.3921813964844	1245.569458007813	-1375.401245117188	-322.2180175781251	1184.040283203125	-1369.592895507813	-333.2972412109376	1175.244995117188	-1303.43603515625	-184.0946502685547	933.3660278320315	-1363.802734375	-233.5449829101563	932.3013916015627	-1423.076904296875	-159.9756774902344	846.9671630859377	-1391.415893554688	-264.3371276855469	1516.884155273438	-930.528503417969	-314.0852661132813	1306.311157226563	-845.424499511719	-274.9078674316407	1280.72705078125	-855.8391723632815	-314.5476989746094	1237.161499023438	-842.7629394531252	-308.3674926757813	1174.350219726563	-840.9431762695315	-334.4104614257813	1163.245239257813	-913.762878417969	-149.1428985595703	931.5562744140627	-875.9201660156252	-207.0851745605469	915.5072021484377	-830.0420532226565	-117.6449356079102	848.1729736328127	-846.322204589844	-189.1559600830078	1083.012451171875	-1212.977416992188	-181.3063354492188	1080.17041015625	-982.658142089844	-370.1924743652344	1126.440795898438	-1092.011596679688	-378.0185852050782	1096.87060546875	-1120.334594726563	-376.5556335449219	1096.6826171875	-1064.120971679688	-317.8819274902344	828.7417602539065	-1275.1669921875	-281.2514953613282	752.2512207031251	-1277.945190429688	-233.9052429199219	754.1859741210939	-1278.155639648438	-305.0616760253907	699.3093261718751	-1264.541015625	-293.2187805175782	565.0575561523439	-1249.9609375	-296.7227478027344	548.6686401367189	-1119.098876953125	-267.9245910644532	341.5321655273438	-1206.290771484375	-338.9794921875001	304.4939575195313	-1246.129150390625	-296.3592834472657	295.8799743652344	-1231.624755859375	-291.3268432617188	218.7022247314454	-1194.673706054688	-357.9522399902344	131.9117736816407	-1204.099487304688	-325.9122009277344	146.279296875	-1124.039306640625	-419.5386962890626	99.37773132324222	-1158.921875	-206.2989959716797	58.782039642334	-1132.135498046875	-206.4095611572266	52.37198638916017	-1178.016357421875	-255.4969482421876	37.06646728515626	-1228.009399414063	-264.0747985839844	812.840270996094	-922.7990722656252	-235.5942535400391	752.4852905273439	-926.5397949218752	-202.9793090820313	750.8982543945314	-932.7813110351565	-272.5589599609376	679.3659667968751	-942.3865966796877	-282.2095642089844	543.4020385742189	-957.126403808594	-275.8721923828126	540.7968139648439	-1090.884033203125	-247.1107330322266	355.0071716308594	-988.830749511719	-323.4222717285157	283.3044738769532	-969.2962036132815	-278.5275878906251	275.5051574707032	-978.3704833984377	-265.4627380371094	229.5835418701172	-1014.468139648438	-327.7788085937501	123.1101531982422	-1001.776184082031	-305.1345214843751	135.7509765625	-1086.203125	-389.2112426757814	88.17703247070314	-1060.052856445313	-172.055160522461	58.31246185302736	-1065.753295898438	-177.061019897461	55.3078079223633	-1026.489135742188	-221.1998748779297	35.92541503906251	-974.415710449219	nan	nan	nan	nan	nan	nan	
